<mxfile host="app.diagrams.net" modified="2022-03-27T05:16:54.522Z" agent="5.0 (Macintosh; Intel Mac OS X 10_15_5) AppleWebKit/537.36 (KHTML, like Gecko) Chrome/99.0.4844.83 Safari/537.36" etag="xAUKusKfgvjt9ljR6RI2" version="17.2.2" type="github">
  <diagram id="DAUlYfyEagFE5dyW8LL7" name="Page-1">
    <mxGraphModel dx="946" dy="809" grid="1" gridSize="10" guides="1" tooltips="1" connect="1" arrows="1" fold="1" page="1" pageScale="1" pageWidth="827" pageHeight="1169" math="0" shadow="0">
      <root>
        <mxCell id="0" />
        <mxCell id="1" parent="0" />
        <mxCell id="9wvtpubrWJjUpk24nd-H-75" style="edgeStyle=orthogonalEdgeStyle;rounded=0;orthogonalLoop=1;jettySize=auto;html=1;exitX=0;exitY=0.3333333333333333;exitDx=0;exitDy=0;exitPerimeter=0;entryX=1;entryY=0.5;entryDx=0;entryDy=0;fontSize=18;" edge="1" parent="1" source="9wvtpubrWJjUpk24nd-H-4" target="9wvtpubrWJjUpk24nd-H-25">
          <mxGeometry relative="1" as="geometry" />
        </mxCell>
        <mxCell id="9wvtpubrWJjUpk24nd-H-76" value="提现" style="edgeLabel;html=1;align=center;verticalAlign=middle;resizable=0;points=[];fontSize=18;" vertex="1" connectable="0" parent="9wvtpubrWJjUpk24nd-H-75">
          <mxGeometry x="-0.1" y="1" relative="1" as="geometry">
            <mxPoint as="offset" />
          </mxGeometry>
        </mxCell>
        <mxCell id="9wvtpubrWJjUpk24nd-H-4" value="&lt;font color=&quot;#000000&quot;&gt;推广员/合伙人&lt;/font&gt;" style="shape=umlActor;verticalLabelPosition=bottom;verticalAlign=top;html=1;outlineConnect=0;fontSize=18;fillColor=#1ba1e2;fontColor=#ffffff;strokeColor=#006EAF;" vertex="1" parent="1">
          <mxGeometry x="840" y="900" width="30" height="60" as="geometry" />
        </mxCell>
        <mxCell id="9wvtpubrWJjUpk24nd-H-24" value="" style="swimlane;startSize=0;fontSize=18;" vertex="1" parent="1">
          <mxGeometry x="214" y="550" width="586" height="460" as="geometry" />
        </mxCell>
        <mxCell id="9wvtpubrWJjUpk24nd-H-81" value="将钱包钱转到微信账户" style="edgeStyle=orthogonalEdgeStyle;rounded=0;orthogonalLoop=1;jettySize=auto;html=1;exitX=0;exitY=0.5;exitDx=0;exitDy=0;entryX=1;entryY=0.5;entryDx=0;entryDy=0;fontSize=18;" edge="1" parent="9wvtpubrWJjUpk24nd-H-24" source="9wvtpubrWJjUpk24nd-H-25" target="9wvtpubrWJjUpk24nd-H-30">
          <mxGeometry relative="1" as="geometry" />
        </mxCell>
        <mxCell id="9wvtpubrWJjUpk24nd-H-25" value="小程序" style="rounded=1;whiteSpace=wrap;html=1;fontSize=18;fillColor=#dae8fc;strokeColor=#6c8ebf;" vertex="1" parent="9wvtpubrWJjUpk24nd-H-24">
          <mxGeometry x="386" y="340" width="120" height="60" as="geometry" />
        </mxCell>
        <mxCell id="9wvtpubrWJjUpk24nd-H-41" style="edgeStyle=orthogonalEdgeStyle;rounded=0;orthogonalLoop=1;jettySize=auto;html=1;exitX=1;exitY=0.5;exitDx=0;exitDy=0;fontSize=18;" edge="1" parent="9wvtpubrWJjUpk24nd-H-24" source="9wvtpubrWJjUpk24nd-H-27" target="9wvtpubrWJjUpk24nd-H-29">
          <mxGeometry relative="1" as="geometry" />
        </mxCell>
        <mxCell id="9wvtpubrWJjUpk24nd-H-42" value="送审" style="edgeLabel;html=1;align=center;verticalAlign=middle;resizable=0;points=[];fontSize=18;" vertex="1" connectable="0" parent="9wvtpubrWJjUpk24nd-H-41">
          <mxGeometry x="-0.2533" y="-1" relative="1" as="geometry">
            <mxPoint as="offset" />
          </mxGeometry>
        </mxCell>
        <mxCell id="9wvtpubrWJjUpk24nd-H-70" value="根据结算单" style="edgeStyle=orthogonalEdgeStyle;rounded=0;orthogonalLoop=1;jettySize=auto;html=1;exitX=0.5;exitY=1;exitDx=0;exitDy=0;fontSize=18;" edge="1" parent="9wvtpubrWJjUpk24nd-H-24" source="9wvtpubrWJjUpk24nd-H-27" target="9wvtpubrWJjUpk24nd-H-54">
          <mxGeometry relative="1" as="geometry" />
        </mxCell>
        <mxCell id="9wvtpubrWJjUpk24nd-H-27" value="运营后台" style="rounded=1;whiteSpace=wrap;html=1;fontSize=18;fillColor=#dae8fc;strokeColor=#6c8ebf;" vertex="1" parent="9wvtpubrWJjUpk24nd-H-24">
          <mxGeometry x="56" y="90" width="120" height="60" as="geometry" />
        </mxCell>
        <mxCell id="9wvtpubrWJjUpk24nd-H-66" style="edgeStyle=orthogonalEdgeStyle;rounded=0;orthogonalLoop=1;jettySize=auto;html=1;exitX=0.5;exitY=1;exitDx=0;exitDy=0;entryX=0.5;entryY=0;entryDx=0;entryDy=0;fontSize=18;" edge="1" parent="9wvtpubrWJjUpk24nd-H-24" source="9wvtpubrWJjUpk24nd-H-29" target="9wvtpubrWJjUpk24nd-H-65">
          <mxGeometry relative="1" as="geometry" />
        </mxCell>
        <mxCell id="9wvtpubrWJjUpk24nd-H-69" value="通过后，规则生效" style="edgeLabel;html=1;align=center;verticalAlign=middle;resizable=0;points=[];fontSize=18;" vertex="1" connectable="0" parent="9wvtpubrWJjUpk24nd-H-66">
          <mxGeometry x="-0.1714" relative="1" as="geometry">
            <mxPoint as="offset" />
          </mxGeometry>
        </mxCell>
        <mxCell id="9wvtpubrWJjUpk24nd-H-29" value="OA" style="rounded=1;whiteSpace=wrap;html=1;fontSize=18;fillColor=#f8cecc;strokeColor=#b85450;" vertex="1" parent="9wvtpubrWJjUpk24nd-H-24">
          <mxGeometry x="386" y="90" width="120" height="60" as="geometry" />
        </mxCell>
        <mxCell id="9wvtpubrWJjUpk24nd-H-30" value="支付" style="rounded=1;whiteSpace=wrap;html=1;fontSize=18;fillColor=#e1d5e7;strokeColor=#9673a6;" vertex="1" parent="9wvtpubrWJjUpk24nd-H-24">
          <mxGeometry x="56" y="340" width="120" height="60" as="geometry" />
        </mxCell>
        <mxCell id="9wvtpubrWJjUpk24nd-H-59" value="" style="edgeStyle=orthogonalEdgeStyle;rounded=0;orthogonalLoop=1;jettySize=auto;html=1;entryX=1;entryY=0.5;entryDx=0;entryDy=0;fontSize=18;" edge="1" parent="9wvtpubrWJjUpk24nd-H-24" source="9wvtpubrWJjUpk24nd-H-51" target="9wvtpubrWJjUpk24nd-H-54">
          <mxGeometry relative="1" as="geometry" />
        </mxCell>
        <mxCell id="9wvtpubrWJjUpk24nd-H-68" value="产出" style="edgeLabel;html=1;align=center;verticalAlign=middle;resizable=0;points=[];fontSize=18;" vertex="1" connectable="0" parent="9wvtpubrWJjUpk24nd-H-59">
          <mxGeometry x="-0.0513" relative="1" as="geometry">
            <mxPoint as="offset" />
          </mxGeometry>
        </mxCell>
        <mxCell id="9wvtpubrWJjUpk24nd-H-51" value="定时计算" style="html=1;shadow=0;dashed=0;shape=mxgraph.basic.arc;startAngle=0.25;endAngle=1;strokeWidth=4;strokeColor=#34A64D;fontSize=18;" vertex="1" parent="9wvtpubrWJjUpk24nd-H-24">
          <mxGeometry x="236" y="220" width="60.5" height="60" as="geometry" />
        </mxCell>
        <mxCell id="9wvtpubrWJjUpk24nd-H-64" style="edgeStyle=orthogonalEdgeStyle;rounded=0;orthogonalLoop=1;jettySize=auto;html=1;exitX=0.5;exitY=1;exitDx=0;exitDy=0;fontSize=18;" edge="1" parent="9wvtpubrWJjUpk24nd-H-24" source="9wvtpubrWJjUpk24nd-H-54" target="9wvtpubrWJjUpk24nd-H-30">
          <mxGeometry relative="1" as="geometry" />
        </mxCell>
        <mxCell id="9wvtpubrWJjUpk24nd-H-71" value="打款" style="edgeLabel;html=1;align=center;verticalAlign=middle;resizable=0;points=[];fontSize=18;" vertex="1" connectable="0" parent="9wvtpubrWJjUpk24nd-H-64">
          <mxGeometry x="-0.1667" y="-1" relative="1" as="geometry">
            <mxPoint as="offset" />
          </mxGeometry>
        </mxCell>
        <mxCell id="9wvtpubrWJjUpk24nd-H-54" value="结算单" style="rounded=0;whiteSpace=wrap;html=1;fontSize=18;fillColor=#d5e8d4;strokeColor=#82b366;" vertex="1" parent="9wvtpubrWJjUpk24nd-H-24">
          <mxGeometry x="74" y="220" width="84" height="60" as="geometry" />
        </mxCell>
        <mxCell id="9wvtpubrWJjUpk24nd-H-67" value="根据规则" style="edgeStyle=orthogonalEdgeStyle;rounded=0;orthogonalLoop=1;jettySize=auto;html=1;exitX=0;exitY=0.5;exitDx=0;exitDy=0;fontSize=18;" edge="1" parent="9wvtpubrWJjUpk24nd-H-24" source="9wvtpubrWJjUpk24nd-H-65" target="9wvtpubrWJjUpk24nd-H-51">
          <mxGeometry relative="1" as="geometry" />
        </mxCell>
        <mxCell id="9wvtpubrWJjUpk24nd-H-65" value="结算规则" style="rounded=0;whiteSpace=wrap;html=1;fontSize=18;fillColor=#d5e8d4;strokeColor=#82b366;" vertex="1" parent="9wvtpubrWJjUpk24nd-H-24">
          <mxGeometry x="404" y="220" width="84" height="60" as="geometry" />
        </mxCell>
        <mxCell id="9wvtpubrWJjUpk24nd-H-38" style="edgeStyle=orthogonalEdgeStyle;rounded=0;orthogonalLoop=1;jettySize=auto;html=1;exitX=1;exitY=0.3333333333333333;exitDx=0;exitDy=0;exitPerimeter=0;entryX=0;entryY=0.5;entryDx=0;entryDy=0;fontSize=18;" edge="1" parent="1" source="9wvtpubrWJjUpk24nd-H-31" target="9wvtpubrWJjUpk24nd-H-27">
          <mxGeometry relative="1" as="geometry" />
        </mxCell>
        <mxCell id="9wvtpubrWJjUpk24nd-H-40" value="创建结算规则" style="edgeLabel;html=1;align=center;verticalAlign=middle;resizable=0;points=[];fontSize=18;" vertex="1" connectable="0" parent="9wvtpubrWJjUpk24nd-H-38">
          <mxGeometry y="-1" relative="1" as="geometry">
            <mxPoint as="offset" />
          </mxGeometry>
        </mxCell>
        <mxCell id="9wvtpubrWJjUpk24nd-H-31" value="&lt;font color=&quot;#000000&quot;&gt;运营&lt;/font&gt;" style="shape=umlActor;verticalLabelPosition=bottom;verticalAlign=top;html=1;outlineConnect=0;fontSize=18;fillColor=#d80073;strokeColor=#A50040;fontColor=#ffffff;" vertex="1" parent="1">
          <mxGeometry x="50" y="650" width="30" height="60" as="geometry" />
        </mxCell>
        <mxCell id="9wvtpubrWJjUpk24nd-H-47" style="edgeStyle=orthogonalEdgeStyle;rounded=0;orthogonalLoop=1;jettySize=auto;html=1;exitX=1;exitY=0.3333333333333333;exitDx=0;exitDy=0;exitPerimeter=0;entryX=0.75;entryY=0;entryDx=0;entryDy=0;fontSize=18;" edge="1" parent="1" source="9wvtpubrWJjUpk24nd-H-36" target="9wvtpubrWJjUpk24nd-H-29">
          <mxGeometry relative="1" as="geometry">
            <Array as="points">
              <mxPoint x="690" y="480" />
            </Array>
          </mxGeometry>
        </mxCell>
        <mxCell id="9wvtpubrWJjUpk24nd-H-48" value="审核" style="edgeLabel;html=1;align=center;verticalAlign=middle;resizable=0;points=[];fontSize=18;" vertex="1" connectable="0" parent="9wvtpubrWJjUpk24nd-H-47">
          <mxGeometry x="-0.5657" y="1" relative="1" as="geometry">
            <mxPoint as="offset" />
          </mxGeometry>
        </mxCell>
        <mxCell id="9wvtpubrWJjUpk24nd-H-36" value="&lt;font color=&quot;#000000&quot;&gt;审核人员&lt;/font&gt;" style="shape=umlActor;verticalLabelPosition=bottom;verticalAlign=top;html=1;outlineConnect=0;fontSize=18;fillColor=#0050ef;fontColor=#ffffff;strokeColor=#001DBC;" vertex="1" parent="1">
          <mxGeometry x="640" y="460" width="30" height="60" as="geometry" />
        </mxCell>
        <mxCell id="9wvtpubrWJjUpk24nd-H-44" style="edgeStyle=orthogonalEdgeStyle;rounded=0;orthogonalLoop=1;jettySize=auto;html=1;exitX=0.5;exitY=0;exitDx=0;exitDy=0;entryX=0;entryY=0.3333333333333333;entryDx=0;entryDy=0;entryPerimeter=0;fontSize=18;" edge="1" parent="1">
          <mxGeometry relative="1" as="geometry">
            <mxPoint x="673" y="640" as="sourcePoint" />
            <mxPoint x="648" y="480" as="targetPoint" />
            <Array as="points">
              <mxPoint x="623" y="640" />
              <mxPoint x="623" y="480" />
            </Array>
          </mxGeometry>
        </mxCell>
        <mxCell id="9wvtpubrWJjUpk24nd-H-46" value="发送通知" style="edgeLabel;html=1;align=center;verticalAlign=middle;resizable=0;points=[];fontSize=18;" vertex="1" connectable="0" parent="9wvtpubrWJjUpk24nd-H-44">
          <mxGeometry x="-0.24" relative="1" as="geometry">
            <mxPoint as="offset" />
          </mxGeometry>
        </mxCell>
        <mxCell id="9wvtpubrWJjUpk24nd-H-78" style="edgeStyle=orthogonalEdgeStyle;rounded=0;orthogonalLoop=1;jettySize=auto;html=1;exitX=0.5;exitY=0.5;exitDx=0;exitDy=0;exitPerimeter=0;fontSize=18;" edge="1" parent="1" source="9wvtpubrWJjUpk24nd-H-53" target="9wvtpubrWJjUpk24nd-H-27">
          <mxGeometry relative="1" as="geometry" />
        </mxCell>
        <mxCell id="9wvtpubrWJjUpk24nd-H-80" value="确认结算" style="edgeLabel;html=1;align=center;verticalAlign=middle;resizable=0;points=[];fontSize=18;" vertex="1" connectable="0" parent="9wvtpubrWJjUpk24nd-H-78">
          <mxGeometry x="0.2857" relative="1" as="geometry">
            <mxPoint as="offset" />
          </mxGeometry>
        </mxCell>
        <mxCell id="9wvtpubrWJjUpk24nd-H-53" value="财务" style="shape=umlActor;verticalLabelPosition=bottom;verticalAlign=top;html=1;outlineConnect=0;fontSize=18;fillColor=#fa6800;fontColor=#000000;strokeColor=#C73500;" vertex="1" parent="1">
          <mxGeometry x="315" y="460" width="30" height="60" as="geometry" />
        </mxCell>
      </root>
    </mxGraphModel>
  </diagram>
</mxfile>
